<?xml version="1.0" encoding="UTF-8" standalone="no"?>
<!-- Created with Inkscape (http://www.inkscape.org/) -->

<svg
   width="120.46692mm"
   height="149.44281mm"
   viewBox="0 0 120.46692 149.44281"
   version="1.1"
   id="svg5"
   xml:space="preserve"
   inkscape:version="1.2 (dc2aedaf03, 2022-05-15)"
   sodipodi:docname="dentist.svg"
   xmlns:inkscape="http://www.inkscape.org/namespaces/inkscape"
   xmlns:sodipodi="http://sodipodi.sourceforge.net/DTD/sodipodi-0.dtd"
   xmlns="http://www.w3.org/2000/svg"
   xmlns:svg="http://www.w3.org/2000/svg"><sodipodi:namedview
     id="namedview7"
     pagecolor="#ffffff"
     bordercolor="#666666"
     borderopacity="1.0"
     inkscape:showpageshadow="2"
     inkscape:pageopacity="0.0"
     inkscape:pagecheckerboard="0"
     inkscape:deskcolor="#d1d1d1"
     inkscape:document-units="mm"
     showgrid="false"
     inkscape:zoom="1.2938725"
     inkscape:cx="272.05154"
     inkscape:cy="241.13659"
     inkscape:window-width="2880"
     inkscape:window-height="1706"
     inkscape:window-x="3229"
     inkscape:window-y="3900"
     inkscape:window-maximized="1"
     inkscape:current-layer="layer1" /><defs
     id="defs2" /><g
     inkscape:label="Layer 1"
     inkscape:groupmode="layer"
     id="layer1"
     transform="translate(-42.249801,-147.83106)"><path
       id="path6272-4"
       style="fill:#97d8d7;fill-opacity:1;stroke:#000000;stroke-width:5;stroke-dasharray:none"
       d="m 102.48248,150.33108 a 57.733034,57.733034 0 0 0 -57.732679,57.7327 57.733034,57.733034 0 0 0 33.08614,52.19042 67.091968,58.243874 0 0 1 18.92918,18.29237 l 0.15651,0.23867 a 67.091968,58.243874 0 0 1 5.560849,11.14957 67.091968,58.243874 0 0 1 24.6961,-29.7007 57.733034,57.733034 0 0 0 33.03814,-52.17027 57.733034,57.733034 0 0 0 -57.73424,-57.7327 z" /><g
       id="g11554"
       transform="matrix(0.1585494,0,0,0.1585494,63.727169,166.76139)"><polygon
         style="fill:#f4411e"
         points="344.083,123.875 344.083,79.844 371.603,79.844 371.603,52.314 415.644,52.314 415.644,79.844 443.174,79.844 443.174,123.875 415.644,123.875 415.644,151.405 371.603,151.405 371.603,123.875 "
         id="polygon11531" /><path
         style="fill:#31c0d8"
         d="m 472.569,152.144 c -16.622,26.041 -45.762,43.303 -78.94,43.303 -51.685,0 -93.587,-41.902 -93.587,-93.587 0,-15.971 4.004,-31.016 11.063,-44.163 15.772,-29.416 46.81,-49.424 82.524,-49.424 51.685,0 93.587,41.902 93.587,93.587 0,18.507 -5.371,35.758 -14.647,50.284 z M 443.174,123.875 V 79.844 h -27.53 v -27.53 h -44.042 v 27.53 h -27.519 v 44.031 h 27.519 v 27.53 h 44.042 v -27.53 c 0,0 27.53,0 27.53,0 z"
         id="path11533" /><path
         style="fill:#e7eced"
         d="m 473.396,156.909 c 1.831,11.581 2.813,24.387 2.813,38.538 0,214.694 -148.648,308.281 -148.648,308.281 -22.015,0 -22.015,-22.015 -22.015,-22.015 v -137.63 c 0,-55.049 -55.049,-55.049 -55.049,-55.049 0,0 -55.049,0 -55.049,55.049 v 137.629 c 0,0 0,22.015 -22.026,22.015 0,0 -148.637,-93.587 -148.637,-308.281 0,-214.705 225.712,-121.117 225.712,-121.117 0,0 26.107,-10.82 60.553,-16.666 l 0.055,0.033 c -7.059,13.147 -11.063,28.192 -11.063,44.163 0,51.685 41.902,93.587 93.587,93.587 33.177,0 62.318,-17.262 78.94,-43.303 0.298,1.556 0.573,3.156 0.827,4.766 z"
         id="path11535" /><path
         d="m 481.265,153.788 c 9.312,-15.682 14.224,-33.562 14.224,-51.928 C 495.489,45.694 449.795,0 393.629,0 357.403,0 324.147,19.128 305.85,50.183 279.241,55.046 258.225,62.493 250.496,65.44 242.183,62.269 218.504,53.889 189.026,49.129 140.408,41.278 99.405,47.355 70.441,66.7 c -35.785,23.901 -53.93,67.218 -53.93,128.746 0,49.923 7.976,97.54 23.707,141.528 12.601,35.238 30.175,68.223 52.232,98.042 37.652,50.899 74.99,74.722 76.562,75.711 l 2.021,1.272 h 2.388 c 22.229,0 30.299,-18.113 30.299,-30.288 V 344.083 c 0,-19.238 7.568,-32.877 22.492,-40.536 11.866,-6.09 24.189,-6.241 24.285,-6.241 1.909,0 46.777,0.532 46.777,46.777 v 137.629 c 0,12.175 8.066,30.288 30.288,30.288 h 2.387 l 2.021,-1.272 c 1.571,-0.988 38.912,-24.811 76.567,-75.711 22.058,-29.818 39.634,-62.804 52.236,-98.042 15.733,-43.989 23.71,-91.605 23.71,-141.528 0,-14.193 -0.981,-27.594 -2.914,-39.828 -0.099,-0.623 -0.202,-1.226 -0.304,-1.831 z M 318.394,61.605 c 14.903,-27.795 43.732,-45.061 75.235,-45.061 47.042,0 85.315,38.272 85.315,85.315 0,16.31 -4.616,32.158 -13.348,45.834 -15.779,24.722 -42.683,39.481 -71.967,39.481 -47.043,0 -85.316,-38.272 -85.316,-85.315 0,-14.05 3.485,-27.968 10.08,-40.251 z m 126.967,269.331 c -11.982,33.645 -28.697,65.149 -49.68,93.638 -27.153,36.866 -56.688,61.514 -70.392,70.756 -10.393,-1.2 -11.417,-10.65 -11.47,-13.617 v -137.63 c 0,-32.662 -17.455,-48.246 -32.098,-55.567 -15.332,-7.667 -30.583,-7.755 -31.224,-7.755 -0.641,0 -15.892,0.088 -31.224,7.755 -14.643,7.322 -32.098,22.904 -32.098,55.567 v 137.629 c 0,0.035 -0.11,3.771 -1.879,7.307 -1.234,2.466 -3.546,5.659 -9.548,6.316 -8.172,-5.63 -39.113,-28.408 -69.995,-70.156 C 84.66,396.665 67.853,365.114 55.797,331.404 40.707,289.208 33.056,243.465 33.056,195.446 c 0,-55.637 15.658,-94.317 46.539,-114.964 62.005,-41.455 166.687,1.056 167.732,1.489 l 3.168,1.31 3.164,-1.309 c 0.213,-0.088 18.258,-7.479 43.62,-13.164 -3.622,10.589 -5.512,21.785 -5.512,33.051 0,56.166 45.695,101.86 101.861,101.86 28.087,0 54.332,-11.378 73.336,-31.15 0.641,7.296 0.972,14.941 0.972,22.878 0,47.84 -7.595,93.425 -22.575,135.489 z"
         id="path11537" /><path
         d="m 102.224,112.576 c -16.498,13.063 -36.166,37.087 -36.166,77.367 h 16.545 c 0,-64.029 57.37,-79.438 59.813,-80.064 l -4.034,-16.045 c -0.746,0.187 -18.449,4.721 -36.158,18.742 z"
         id="path11539" /><path
         d="m 363.331,159.677 h 60.586 v -27.53 h 27.53 V 71.572 h -27.53 v -27.53 h -60.586 v 27.53 h -27.519 v 60.575 h 27.519 z M 352.356,115.603 V 88.117 h 27.519 v -27.53 h 27.497 v 27.53 h 27.53 v 27.486 h -27.53 v 27.53 h -27.497 v -27.53 c 0,0 -27.519,0 -27.519,0 z"
         id="path11541" /></g></g></svg>
